<?xml version="1.0" encoding="utf-8"?>
<!-- Svg Vector Icons : http://www.onlinewebfonts.com/icon -->
<!DOCTYPE svg PUBLIC "-//W3C//DTD SVG 1.1//EN" "http://www.w3.org/Graphics/SVG/1.1/DTD/svg11.dtd">
<svg version="1.1" xmlns="http://www.w3.org/2000/svg" xmlns:xlink="http://www.w3.org/1999/xlink" x="0px" y="0px" viewBox="0 0 1000 1000" enable-background="new 0 0 1000 1000" xml:space="preserve">
<metadata> Svg Vector Icons : http://www.onlinewebfonts.com/icon </metadata>
<g><path d="M788.7,609.5c-39.3-49.5-85.4-90.7-133.2-119c-17.7-10.5-35.4-19.2-53.1-26.1c24.3-11.6,46.8-27.4,66.4-47c45.1-45.1,69.9-105,69.9-168.8c0-63.8-24.8-123.7-69.9-168.8C623.7,34.8,563.8,10,500,10c-63.8,0-123.7,24.8-168.8,69.9c-45.1,45.1-69.9,105-69.9,168.8c0,63.8,24.8,123.7,69.9,168.8c19.7,19.7,42.2,35.5,66.6,47.1c-17.8,7-35.5,15.7-53.2,26.3c-47.8,28.5-93.8,69.8-133.2,119.5C128.7,714.6,81.3,845.1,81.3,968.5c0,11.9,9.6,21.5,21.5,21.5h794.3c11.9,0,21.5-9.6,21.5-21.5C918.7,844.3,871.3,713.5,788.7,609.5z M304.4,248.7c0-107.9,87.8-195.6,195.6-195.6s195.6,87.8,195.6,195.6c0,107.9-87.8,195.6-195.6,195.6C392.1,444.3,304.4,356.6,304.4,248.7z M124.9,946.9c2.4-51,13.4-102.9,32.8-154.7c20.8-55.6,51-109.3,87.5-155.3c36.2-45.6,78.2-83.4,121.5-109.2c45-26.8,89.9-40.4,133.3-40.4c43.6,0,88.5,13.5,133.5,40.2c43.4,25.7,85.4,63.3,121.5,108.7c36.4,45.9,66.7,99.5,87.4,155.1c19.3,51.9,30.3,104.1,32.7,155.5H124.9z"/></g>
</svg>