<?xml version="1.0" encoding="utf-8"?>
<!-- Svg Vector Icons : http://www.onlinewebfonts.com/icon -->
<!DOCTYPE svg PUBLIC "-//W3C//DTD SVG 1.1//EN" "http://www.w3.org/Graphics/SVG/1.1/DTD/svg11.dtd">
<svg version="1.1" xmlns="http://www.w3.org/2000/svg" xmlns:xlink="http://www.w3.org/1999/xlink" x="0px" y="0px" viewBox="0 0 1000 1000" enable-background="new 0 0 1000 1000" xml:space="preserve">
<metadata> Svg Vector Icons : http://www.onlinewebfonts.com/icon </metadata>
<g><g transform="translate(0.000000,511.000000) scale(0.100000,-0.100000)"><path d="M3529.7,4093.6c-729.3-69.3-1402.9-540.7-1716.5-1202.7c-78.9-165.5-132.8-321.4-175.1-510c-28.9-125.1-34.6-288.7-42.3-1218.1L1586,88.9L874-1194.6C483.4-1900.9,140.8-2514.7,115.8-2559c-46.2-80.8-38.5-77,706.3,371.4c413.7,248.2,758.2,448.4,762.1,442.6c3.8-3.9,17.3-94.3,26.9-200.1c44.3-483,250.2-921.8,598.5-1285.5c363.7-379.1,837.1-600.4,1381.7-644.7c153.9-13.5,991.1-17.3,2338.1-11.6c2057.2,5.8,2101.4,7.7,2261.1,48.1c458,113.5,798.6,302.1,1089.2,604.3c306,317.5,479.2,648.5,579.3,1093c26.9,127,32.7,367.6,38.5,2078.3c5.8,1320.1,1.9,2011-13.5,2180.3c-46.2,531.1-242.5,966-604.3,1337.4c-352.2,363.7-827.5,590.8-1335.5,638.9C7707.5,4114.7,3764.4,4114.7,3529.7,4093.6z M6252.7,2234.6c77-17.3,211.7-65.4,302.1-107.8c286.7-136.6,544.6-440.7,573.5-675.4c9.6-78.9,11.6-82.7,155.9-152c152-73.1,463.8-265.6,463.8-286.7c0-7.7-32.7-17.3-75.1-23.1c-248.2-32.7-471.5-292.5-521.5-610c-9.6-69.3-19.2-375.3-19.2-683.2c0-619.7-11.5-712-121.2-931.4c-152-309.8-448.4-575.4-787.1-702.4c-202.1-77-396.4-107.8-663.9-107.8c-800.5,0-1395.2,300.2-1678.1,846.7c-67.4,127-136.6,319.5-136.6,371.4c0,11.5,52-30.8,115.5-90.4c61.6-59.7,146.3-123.2,186.7-140.5c92.4-38.5,250.2-38.5,323.3,0c109.7,55.8,211.7,190.5,265.6,348.3c11.6,36.6,25,423.4,32.7,964.1c11.6,896.8,13.5,906.4,63.5,1091.1c69.3,263.6,165.5,438.8,331,602.3c155.9,155.9,277.1,227.1,475.3,279C5719.6,2273.1,6058.3,2277,6252.7,2234.6z"/><path d="M6118,1628.4c-84.7-25-173.2-119.3-198.2-211.7c-42.3-153.9,55.8-321.4,213.6-363.7c215.5-59.6,423.4,148.2,363.7,363.7c-25,96.2-115.5,186.7-207.8,213.6C6206.5,1651.5,6200.7,1651.5,6118,1628.4z"/></g></g>
</svg>